<svg width="84" height="111" viewBox="0 0 84 111" fill="none" xmlns="http://www.w3.org/2000/svg">
<path d="M1.70703 62.0257C4.31161 42.5586 21.2158 27.5335 41.6821 27.5335C60.4312 27.5335 76.1864 40.1488 80.6997 57.2313" stroke="#9CAF88" stroke-width="2.71" stroke-miterlimit="10"/>
<path d="M56.5878 103.578C56.5878 104.402 56.5622 105.226 56.5112 106.044C51.9212 107.837 46.91 108.819 41.6753 108.819C19.4087 108.819 1.35547 91.0252 1.35547 69.079C1.35547 68.2547 1.38101 67.4305 1.43208 66.6126C6.022 64.8194 11.0269 63.8378 16.2679 63.8378C38.5345 63.8378 56.5878 81.6313 56.5878 103.578Z" stroke="#9CAF88" stroke-width="2.71" stroke-miterlimit="10"/>
<path d="M43.2393 71.6084C52.2978 62.8563 65.3973 58.4457 78.816 60.887C79.6395 61.038 80.4566 61.2141 81.2609 61.4092C82.2185 66.1847 82.2887 71.2183 81.3375 76.2895C78.8862 89.3641 70.2043 99.7458 58.8731 105.018" stroke="#9CAF88" stroke-width="2.71" stroke-miterlimit="10"/>
<path d="M35.6108 23.664H47.0122C47.8038 23.664 48.5252 23.2299 48.8891 22.5441L52.3299 16.0445C52.7576 15.2329 52.6044 14.245 51.9469 13.6033L51.6915 13.3516C51.2958 12.9615 50.7531 12.7413 50.1914 12.7413H31.9593C31.1997 12.7413 30.5038 13.1377 30.1208 13.7857C29.7569 14.4086 29.7442 15.1762 30.0889 15.8117L33.7404 22.5629C34.1107 23.2425 34.8256 23.6703 35.6108 23.6703V23.664Z" stroke="#9CAF88" stroke-width="2.71" stroke-miterlimit="10"/>
<path d="M38.2925 1.28998H44.1145C44.8742 1.28998 45.4934 1.90029 45.4934 2.64903V9.7463H36.9072V2.64903C36.9072 1.90029 37.5265 1.28998 38.2861 1.28998H38.2925Z" stroke="#9CAF88" stroke-width="2.58" stroke-miterlimit="10"/>
<path d="M41.2027 6.80166C41.9219 6.80166 42.505 6.22699 42.505 5.51811C42.505 4.80922 41.9219 4.23456 41.2027 4.23456C40.4834 4.23456 39.9004 4.80922 39.9004 5.51811C39.9004 6.22699 40.4834 6.80166 41.2027 6.80166Z" stroke="#9CAF88" stroke-width="2.71" stroke-miterlimit="10"/>
</svg>
