<svg width="336" height="121" viewBox="0 0 336 121" fill="none" xmlns="http://www.w3.org/2000/svg">
<path d="M1.16504 67.9767C4.00423 46.4324 22.4531 29.8091 44.7896 29.8091C65.253 29.8091 82.4531 43.7717 87.3775 62.6671" stroke="white" stroke-width="1.6" stroke-miterlimit="10"/>
<path d="M61.0708 113.95C61.0708 114.868 61.0472 115.774 60.9883 116.681C55.9814 118.671 50.5151 119.754 44.8014 119.754C20.4974 119.754 0.799805 100.069 0.799805 75.782C0.799805 74.8638 0.823366 73.9573 0.88227 73.0507C5.88914 71.0611 11.3555 69.978 17.0692 69.978C41.3731 69.978 61.0708 89.6622 61.0708 113.95Z" stroke="white" stroke-width="1.6" stroke-miterlimit="10"/>
<path d="M46.498 78.5718C56.3822 68.8827 70.6724 64.0088 85.3278 66.7047C86.2231 66.8696 87.1185 67.0697 88.0021 67.2816C89.0388 72.5676 89.1212 78.1362 88.0845 83.7518C85.4103 98.2207 75.9385 109.711 63.5685 115.539" stroke="white" stroke-width="1.6" stroke-miterlimit="10"/>
<path d="M38.1682 25.5234H50.6088C51.4688 25.5234 52.2581 25.0407 52.6587 24.2755L56.4168 17.0823C56.888 16.1875 56.7113 15.0926 56.0045 14.3745L55.7217 14.092C55.2858 13.6564 54.6968 13.4209 54.0842 13.4209H34.1863C33.3616 13.4209 32.5959 13.8565 32.1835 14.5746C31.783 15.2692 31.7712 16.1169 32.1482 16.8115L36.1301 24.2872C36.5307 25.0407 37.32 25.5116 38.1682 25.5116V25.5234Z" stroke="white" stroke-width="1.6" stroke-miterlimit="10"/>
<path d="M41.0909 0.765137H47.4526C48.289 0.765137 48.9605 1.43619 48.9605 2.27206V10.1246H39.5947V2.27206C39.5947 1.43619 40.2662 0.765137 41.1027 0.765137H41.0909Z" stroke="white" stroke-width="1.53" stroke-miterlimit="10"/>
<path d="M44.2712 6.87491C45.0585 6.87491 45.6967 6.23714 45.6967 5.4504C45.6967 4.66366 45.0585 4.02588 44.2712 4.02588C43.4839 4.02588 42.8457 4.66366 42.8457 5.4504C42.8457 6.23714 43.4839 6.87491 44.2712 6.87491Z" stroke="white" stroke-width="1.6" stroke-miterlimit="10"/>
<path d="M105.568 43.4767C105.568 41.3223 106.204 39.6035 107.476 38.332C108.748 37.0605 110.574 36.4248 112.942 36.4248H122.709C132.652 36.4248 137.623 40.4629 137.623 48.5273C137.623 52.3535 136.469 55.2731 134.172 57.3099C131.874 59.3466 128.528 60.359 124.134 60.359L133.689 70.1187C134.077 70.5072 134.278 71.0252 134.278 71.661C134.278 72.3673 133.995 72.956 133.429 73.4151C132.899 73.8389 132.345 74.0509 131.78 74.0509C130.932 74.0509 130.166 73.6623 129.495 72.8853L117.49 60.4179H110.904V71.5079C110.904 72.3202 110.657 72.956 110.162 73.4151C109.667 73.8743 109.008 74.1097 108.195 74.1097C107.382 74.1097 106.734 73.8743 106.251 73.4151C105.768 72.956 105.532 72.3202 105.532 71.5079V43.4885L105.568 43.4767ZM122.827 56.1679C126.113 56.1679 128.505 55.5792 129.989 54.4137C131.474 53.2482 132.216 51.2822 132.216 48.5273C132.216 45.7725 131.45 43.724 129.907 42.4996C128.364 41.2752 126.007 40.663 122.815 40.663H113.52C112.742 40.663 112.118 40.922 111.635 41.4283C111.152 41.9463 110.916 42.6409 110.916 43.5238V56.1561H122.815L122.827 56.1679Z" fill="white"/>
<path d="M142.17 73.4387C141.723 72.9913 141.511 72.3909 141.511 71.6021V51.6C141.511 46.679 142.913 42.841 145.705 40.0626C148.497 37.2842 152.361 35.895 157.285 35.895C160.537 35.895 163.364 36.519 165.756 37.7787C168.147 39.0384 169.973 40.8514 171.222 43.2177C172.483 45.5841 173.107 48.386 173.107 51.6V71.6021C173.107 72.3791 172.871 72.9913 172.412 73.4387C171.953 73.886 171.328 74.0979 170.551 74.0979C169.773 74.0979 169.208 73.8743 168.748 73.4387C168.289 72.9913 168.053 72.3909 168.053 71.6021V60.7828H146.494V71.6021C146.494 72.3791 146.27 72.9913 145.834 73.4387C145.387 73.886 144.786 74.0979 144.008 74.0979C143.231 74.0979 142.618 73.8743 142.182 73.4387H142.17ZM168.053 56.7447V51.4352C168.053 47.7621 167.134 44.9366 165.296 42.9705C163.459 41.0044 160.784 40.0273 157.274 40.0273C153.763 40.0273 151.1 40.9927 149.251 42.9234C147.413 44.8542 146.494 47.6914 146.494 51.4352V56.7447H168.053Z" fill="white"/>
<path d="M180.435 73.4388C179.987 72.9914 179.775 72.391 179.775 71.6022V38.391C179.775 37.614 179.999 37.0018 180.435 36.5544C180.883 36.1071 181.472 35.8952 182.214 35.8952C182.956 35.8952 183.616 36.1188 184.075 36.5544C184.535 37.0018 184.77 37.6022 184.77 38.391V71.6022C184.77 72.3792 184.535 72.9914 184.075 73.4388C183.616 73.8862 182.992 74.0981 182.214 74.0981C181.437 74.0981 180.883 73.8744 180.435 73.4388ZM180.624 30.5385C180.624 30.2913 180.671 30.044 180.789 29.7968L183.969 22.2622C184.429 21.132 185.124 20.5669 186.043 20.5669C186.396 20.5669 186.82 20.6728 187.315 20.8848C188.234 21.3792 188.694 21.9796 188.694 22.686C188.694 23.0392 188.564 23.4277 188.317 23.8515L184.123 31.1742C183.698 31.8453 183.109 32.1867 182.367 32.1867C182.12 32.1867 181.849 32.1278 181.566 32.0219C180.93 31.704 180.612 31.2096 180.612 30.5385H180.624Z" fill="white"/>
<path d="M193.04 72.1908C191.921 71.2725 191.367 69.9657 191.367 68.2587C191.367 66.9872 191.626 65.8923 192.133 64.974C192.651 64.0558 193.57 63.0786 194.925 62.0544L216.484 44.9131C217.085 44.4186 217.509 43.9713 217.756 43.5592C218.004 43.1472 218.133 42.6527 218.133 42.0405C218.133 41.5107 217.968 41.1105 217.65 40.8515C217.332 40.5925 216.802 40.4512 216.06 40.4512H195.137C194.324 40.4512 193.653 40.2746 193.146 39.9214C192.64 39.5682 192.38 39.0855 192.38 38.4851C192.38 37.8141 192.628 37.2961 193.123 36.9429C193.617 36.5897 194.289 36.4131 195.137 36.4131H216.908C218.887 36.4131 220.442 36.8605 221.55 37.7434C222.669 38.6264 223.223 39.9567 223.223 41.7226C223.223 43.0648 222.975 44.1714 222.48 45.0426C221.986 45.9138 221.043 46.8792 219.665 47.9387L198.059 65.08C197.458 65.5744 197.046 66.0336 196.81 66.4574C196.574 66.8812 196.468 67.3992 196.468 67.9997C196.468 69.0239 197.269 69.5419 198.86 69.5419H220.949C221.726 69.5419 222.374 69.7185 222.893 70.0717C223.411 70.4249 223.659 70.9076 223.659 71.508C223.659 72.179 223.399 72.697 222.893 73.0502C222.386 73.4034 221.738 73.58 220.949 73.58H197.694C195.714 73.58 194.159 73.1209 193.052 72.2026L193.04 72.1908Z" fill="white"/>
<path d="M230.574 71.7081C229.266 70.4719 228.606 68.7531 228.606 66.5633V43.2648C228.606 41.1457 229.243 39.474 230.515 38.2496C231.787 37.0252 233.554 36.4248 235.828 36.4248H252.286C253.947 36.4248 254.784 37.1194 254.784 38.4968C254.784 39.0972 254.56 39.5799 254.124 39.9331C253.676 40.2863 253.075 40.4629 252.298 40.4629H236.264C235.451 40.4629 234.803 40.7337 234.32 41.2635C233.837 41.7932 233.602 42.4996 233.602 43.3826V52.5654H248.257C249.918 52.5654 250.754 53.26 250.754 54.6374C250.754 55.2731 250.531 55.7676 250.095 56.1208C249.647 56.474 249.046 56.6506 248.269 56.6506H233.613V66.6222C233.613 67.5051 233.849 68.2115 234.332 68.7413C234.815 69.2711 235.451 69.5419 236.276 69.5419H253.476C254.289 69.5419 254.913 69.7067 255.337 70.0481C255.761 70.3895 255.973 70.884 255.973 71.555C255.973 72.1907 255.75 72.6852 255.314 73.0384C254.878 73.3916 254.265 73.5682 253.488 73.5682H236.017C233.719 73.5682 231.905 72.9442 230.597 71.7081H230.574Z" fill="white"/>
<path d="M267.53 72.3791C264.609 71.2254 262.253 69.6243 260.438 67.5758C260.085 67.1166 259.908 66.6693 259.908 66.2454C259.908 65.5744 260.203 64.9858 260.815 64.4913C261.204 64.1734 261.616 64.0086 262.041 64.0086C262.677 64.0086 263.336 64.35 264.008 65.0211C265.528 66.5751 267.413 67.7877 269.663 68.6589C271.913 69.5301 274.375 69.9539 277.073 69.9539C279.9 69.9539 282.103 69.4359 283.682 68.3881C285.261 67.3403 286.05 65.8805 286.05 64.0086C286.05 62.278 285.272 60.8653 283.717 59.7939C282.162 58.7226 279.488 57.769 275.695 56.9567C270.487 55.7911 266.741 54.3195 264.432 52.5536C262.135 50.7877 260.98 48.4449 260.98 45.5488C260.98 43.6062 261.569 41.911 262.736 40.4511C263.902 39.0031 265.563 37.8729 267.731 37.0841C269.887 36.2835 272.408 35.895 275.27 35.895C278.522 35.895 281.444 36.4483 284.035 37.5668C286.615 38.6852 288.5 40.1921 289.667 42.0993C289.949 42.5231 290.091 42.9705 290.091 43.4297C290.091 44.136 289.749 44.7247 289.078 45.1838C288.76 45.3957 288.383 45.5017 287.958 45.5017C287.57 45.5017 287.181 45.4075 286.792 45.2074C286.403 45.019 286.085 44.76 285.838 44.4421C284.813 43.0294 283.387 41.9345 281.561 41.181C279.735 40.4158 277.638 40.0391 275.27 40.0391C272.266 40.0391 269.969 40.51 268.39 41.44C266.812 42.3819 266.022 43.7475 266.022 45.5488C266.022 46.6436 266.341 47.5972 266.977 48.386C267.613 49.1866 268.661 49.893 270.11 50.5051C271.559 51.1291 273.562 51.7295 276.107 52.3299C281.455 53.5661 285.296 55.0966 287.629 56.9213C289.961 58.7461 291.128 61.1007 291.128 64.0086C291.128 66.0571 290.55 67.8348 289.408 69.3417C288.253 70.8486 286.615 72.0142 284.495 72.8383C282.374 73.6741 279.889 74.0862 277.061 74.0862C273.621 74.0862 270.452 73.5093 267.53 72.3673V72.3791Z" fill="white"/>
<path d="M310.189 73.0741C308.528 72.3913 307.267 71.4024 306.384 70.1309C305.512 68.8477 305.076 67.3643 305.076 65.669C305.076 63.7029 305.701 62.0077 306.938 60.5831C308.175 59.1586 309.942 58.0167 312.227 57.1455C311.12 56.286 310.272 55.3913 309.659 54.4613C309.046 53.5312 308.752 52.507 308.752 51.3768C308.752 49.4107 309.388 47.8684 310.672 46.7383C311.956 45.6081 313.723 45.043 315.985 45.043C318.118 45.043 319.814 45.6081 321.098 46.7383C322.382 47.8684 323.018 49.4342 323.018 51.4239C323.018 52.766 322.583 54.0139 321.723 55.1441C320.863 56.2743 319.626 57.2279 318 58.0167L325.434 65.0451C325.999 64.0797 326.411 63.1143 326.682 62.1607C326.953 61.2071 327.153 60.0769 327.283 58.7937C327.342 58.2874 327.519 57.8754 327.825 57.5811C328.131 57.2867 328.532 57.1337 329.015 57.1337C329.663 57.1337 330.158 57.3456 330.511 57.7576C330.865 58.1697 331.006 58.6524 330.959 59.1939C330.452 62.6669 329.486 65.4571 328.084 67.5527L332.007 71.2729C332.384 71.6496 332.573 72.0381 332.573 72.4384C332.573 72.8387 332.384 73.2272 332.007 73.6039C331.689 73.9218 331.289 74.0866 330.841 74.0866C330.405 74.0866 330.063 73.9571 329.792 73.6863L325.869 70.0132C324.927 71.0139 323.631 71.9439 321.97 72.8151C320.309 73.6863 318.341 74.1219 316.044 74.1219C313.747 74.1219 311.827 73.7805 310.165 73.0977L310.189 73.0741ZM320.356 70.1662C321.675 69.5894 322.736 68.7535 323.549 67.6822L314.819 59.4412C312.828 60.0298 311.32 60.8304 310.295 61.8193C309.27 62.82 308.764 64.0914 308.764 65.6572C308.764 67.223 309.423 68.5416 310.743 69.5305C312.062 70.5312 313.829 71.0257 316.032 71.0257C317.599 71.0257 319.037 70.7313 320.356 70.1545V70.1662ZM319.39 51.365C319.39 50.3407 319.084 49.5402 318.459 48.9633C317.835 48.3865 316.987 48.0921 315.915 48.0921C314.842 48.0921 313.959 48.3865 313.346 48.9633C312.746 49.5402 312.439 50.329 312.439 51.3297C312.439 52.1891 312.698 52.9543 313.205 53.6136C313.712 54.2729 314.513 55.0264 315.585 55.8505C318.118 54.6967 319.378 53.2016 319.378 51.365H319.39Z" fill="white"/>
<path d="M106.132 119.082C105.685 118.635 105.473 118.034 105.473 117.246V97.2436C105.473 92.3225 106.875 88.4846 109.667 85.7062C112.459 82.9278 116.323 81.5386 121.247 81.5386C124.499 81.5386 127.326 82.1625 129.718 83.4222C132.109 84.6819 133.935 86.4949 135.184 88.8613C136.445 91.2276 137.069 94.0296 137.069 97.2436V117.246C137.069 118.023 136.833 118.635 136.374 119.082C135.914 119.53 135.29 119.741 134.513 119.741C133.735 119.741 133.169 119.518 132.71 119.082C132.251 118.635 132.015 118.034 132.015 117.246V106.426H110.456V117.246C110.456 118.023 110.232 118.635 109.796 119.082C109.349 119.53 108.748 119.741 107.958 119.741C107.169 119.741 106.568 119.518 106.132 119.082ZM132.015 102.4V97.0905C132.015 93.4174 131.096 90.5919 129.258 88.6258C127.42 86.6598 124.746 85.6826 121.235 85.6826C117.725 85.6826 115.062 86.648 113.213 88.5787C111.375 90.5095 110.456 93.3467 110.456 97.0905V102.4H132.015Z" fill="white"/>
<path d="M141.923 89.132C141.923 86.9776 142.559 85.2587 143.831 83.9873C145.104 82.7158 146.93 82.0801 149.298 82.0801H159.064C169.007 82.0801 173.991 86.1182 173.991 94.1826C173.991 98.0088 172.836 100.928 170.539 102.965C168.241 105.002 164.896 106.014 160.501 106.014L170.056 115.774C170.444 116.162 170.645 116.681 170.645 117.316C170.645 118.023 170.362 118.611 169.797 119.07C169.266 119.494 168.713 119.706 168.147 119.706C167.299 119.706 166.533 119.318 165.862 118.541L153.857 106.073H147.271V117.163C147.271 117.976 147.024 118.611 146.529 119.07C146.034 119.53 145.375 119.765 144.562 119.765C143.749 119.765 143.101 119.53 142.618 119.07C142.135 118.611 141.899 117.976 141.899 117.163V89.1438L141.923 89.132ZM159.182 101.811C162.469 101.811 164.86 101.223 166.345 100.057C167.829 98.8917 168.571 96.9256 168.571 94.1708C168.571 91.416 167.806 89.3675 166.262 88.1431C164.719 86.9187 162.363 86.3065 159.17 86.3065H149.875C149.098 86.3065 148.473 86.5655 147.99 87.0718C147.507 87.5898 147.271 88.2844 147.271 89.1673V101.8H159.17L159.182 101.811Z" fill="white"/>
<path d="M184.887 117.363C181.966 115.774 179.704 113.537 178.09 110.653C176.476 107.768 175.675 104.437 175.675 100.646C175.675 96.8551 176.476 93.5233 178.09 90.639C179.704 87.7546 181.966 85.5178 184.887 83.9285C187.809 82.3391 191.143 81.5386 194.901 81.5386C198.659 81.5386 201.993 82.3391 204.915 83.9285C207.837 85.5178 210.099 87.7546 211.712 90.639C213.326 93.5233 214.128 96.8551 214.128 100.646C214.128 104.437 213.326 107.768 211.712 110.653C210.099 113.537 207.837 115.774 204.915 117.363C201.993 118.953 198.659 119.753 194.901 119.753C191.143 119.753 187.809 118.953 184.887 117.363ZM202.311 113.832C204.455 112.642 206.128 110.924 207.33 108.663C208.532 106.403 209.132 103.73 209.132 100.646C209.132 97.5614 208.508 94.7948 207.271 92.558C206.034 90.3094 204.314 88.6023 202.123 87.4368C199.932 86.2713 197.411 85.6826 194.583 85.6826C191.756 85.6826 189.435 86.283 187.338 87.4839C185.229 88.6847 183.603 90.4153 182.449 92.6521C181.294 94.9008 180.717 97.5614 180.717 100.634C180.717 103.707 181.306 106.379 182.496 108.651C183.686 110.912 185.347 112.642 187.491 113.82C189.635 115.009 192.097 115.597 194.901 115.597C197.705 115.597 200.167 115.009 202.311 113.82V113.832Z" fill="white"/>
<path d="M218.322 119.082C217.874 118.635 217.662 118.034 217.662 117.246V94.006C217.662 90.1092 218.746 87.06 220.925 84.8585C223.105 82.6452 226.121 81.5386 229.973 81.5386C232.094 81.5386 234.061 82.0684 235.864 83.1279C237.666 84.1875 239.08 85.6355 240.116 87.4839C241.141 85.612 242.543 84.1521 244.31 83.1044C246.078 82.0566 248.045 81.5386 250.201 81.5386C254.053 81.5386 257.081 82.6452 259.284 84.8585C261.475 87.0718 262.571 90.121 262.571 94.006V117.246C262.571 118.023 262.335 118.635 261.876 119.082C261.416 119.53 260.792 119.741 260.014 119.741C259.237 119.741 258.636 119.518 258.212 119.082C257.788 118.635 257.576 118.034 257.576 117.246V94.006C257.576 91.2159 256.987 89.1203 255.82 87.7429C254.654 86.3654 252.722 85.6708 250.036 85.6708C247.703 85.6708 245.866 86.4008 244.546 87.8724C243.215 89.344 242.555 91.3807 242.555 94.006V117.246C242.555 118.023 242.331 118.635 241.895 119.082C241.448 119.53 240.859 119.741 240.116 119.741C239.339 119.741 238.738 119.518 238.314 119.082C237.89 118.635 237.678 118.034 237.678 117.246V94.006C237.678 91.4631 236.995 89.4382 235.628 87.9312C234.261 86.4243 232.435 85.6708 230.138 85.6708C227.487 85.6708 225.567 86.3654 224.401 87.7664C223.234 89.1674 222.645 91.2394 222.645 94.006V117.246C222.645 118.023 222.41 118.635 221.95 119.082C221.491 119.53 220.867 119.741 220.089 119.741C219.311 119.741 218.758 119.518 218.31 119.082H218.322Z" fill="white"/>
<path d="M268.885 119.082C268.438 118.635 268.226 118.034 268.226 117.246V97.2436C268.226 92.3225 269.628 88.4846 272.42 85.7062C275.212 82.9278 279.076 81.5386 284 81.5386C287.252 81.5386 290.079 82.1625 292.471 83.4222C294.862 84.6819 296.688 86.4949 297.937 88.8613C299.198 91.2276 299.822 94.0296 299.822 97.2436V117.246C299.822 118.023 299.586 118.635 299.127 119.082C298.667 119.53 298.043 119.741 297.265 119.741C296.488 119.741 295.922 119.518 295.463 119.082C295.004 118.635 294.768 118.034 294.768 117.246V106.426H273.209V117.246C273.209 118.023 272.985 118.635 272.549 119.082C272.101 119.53 271.501 119.741 270.723 119.741C269.946 119.741 269.333 119.518 268.897 119.082H268.885ZM294.78 102.4V97.0905C294.78 93.4174 293.861 90.5919 292.023 88.6258C290.185 86.6598 287.511 85.6826 284 85.6826C280.489 85.6826 277.827 86.648 275.977 88.5787C274.14 90.5095 273.221 93.3467 273.221 97.0905V102.4H294.78Z" fill="white"/>
<path d="M312.192 118.023C309.27 116.869 306.914 115.268 305.099 113.219C304.746 112.76 304.569 112.313 304.569 111.889C304.569 111.218 304.864 110.629 305.476 110.135C305.865 109.817 306.278 109.652 306.702 109.652C307.338 109.652 307.998 109.994 308.669 110.665C310.189 112.219 312.074 113.431 314.324 114.302C316.574 115.174 319.036 115.597 321.734 115.597C324.561 115.597 326.765 115.079 328.343 114.032C329.922 112.984 330.711 111.524 330.711 109.652C330.711 107.922 329.934 106.509 328.379 105.437C326.823 104.366 324.149 103.413 320.356 102.6C315.149 101.435 311.402 99.9631 309.093 98.1972C306.796 96.4312 305.641 94.0884 305.641 91.1923C305.641 89.2498 306.23 87.5545 307.397 86.0947C308.563 84.6466 310.224 83.5164 312.392 82.7276C314.548 81.9271 317.069 81.5386 319.932 81.5386C323.183 81.5386 326.105 82.0919 328.697 83.2103C331.277 84.3287 333.162 85.8357 334.328 87.7429C334.611 88.1667 334.752 88.6141 334.752 89.0732C334.752 89.7796 334.41 90.3682 333.739 90.8274C333.421 91.0393 333.044 91.1452 332.62 91.1452C332.231 91.1452 331.842 91.051 331.453 90.8509C331.065 90.6625 330.746 90.4035 330.499 90.0857C329.474 88.6729 328.049 87.578 326.223 86.8246C324.397 86.0593 322.3 85.6826 319.932 85.6826C316.927 85.6826 314.63 86.1535 313.052 87.0836C311.473 88.0254 310.684 89.3911 310.684 91.1923C310.684 92.2872 311.002 93.2408 311.638 94.0296C312.274 94.8301 313.323 95.5365 314.772 96.1487C316.221 96.7726 318.223 97.3731 320.768 97.9735C326.117 99.2096 329.957 100.74 332.29 102.565C334.622 104.39 335.789 106.744 335.789 109.652C335.789 111.701 335.211 113.478 334.069 114.985C332.914 116.492 331.277 117.658 329.156 118.482C327.035 119.318 324.55 119.73 321.722 119.73C318.282 119.73 315.113 119.153 312.192 118.011V118.023Z" fill="white"/>
</svg>
